%TF.GenerationSoftware,KiCad,Pcbnew,4.0.7+dfsg1-1*%
%TF.CreationDate,2018-03-01T17:25:55+01:00*%
%TF.ProjectId,ARC-Reactor,4152432D52656163746F722E6B696361,rev?*%
%TF.FileFunction,Soldermask,Bot*%
%FSLAX46Y46*%
G04 Gerber Fmt 4.6, Leading zero omitted, Abs format (unit mm)*
G04 Created by KiCad (PCBNEW 4.0.7+dfsg1-1) date Thu Mar  1 17:25:55 2018*
%MOMM*%
%LPD*%
G01*
G04 APERTURE LIST*
%ADD10C,0.150000*%
%ADD11R,1.900000X1.400000*%
%ADD12R,1.400000X1.650000*%
%ADD13R,2.400000X4.200000*%
%ADD14R,2.400000X1.900000*%
%ADD15R,1.100000X1.700000*%
%ADD16R,4.464000X4.464000*%
G04 APERTURE END LIST*
D10*
X123500000Y-100000000D02*
G75*
G03X123500000Y-100000000I-23500000J0D01*
G01*
D11*
X103900000Y-108898060D03*
X103900000Y-106899080D03*
X103900000Y-96901640D03*
X91700000Y-96901640D03*
X91700000Y-98900620D03*
X91700000Y-104897560D03*
X91700000Y-102901120D03*
X91700000Y-106899080D03*
X91700000Y-100902140D03*
X103900000Y-104897560D03*
X103900000Y-98900620D03*
X103900000Y-102901120D03*
X103900000Y-100902140D03*
X91700000Y-108898060D03*
D12*
X83400000Y-99100000D03*
X85400000Y-99100000D03*
X87800000Y-109100000D03*
X85800000Y-109100000D03*
D13*
X87850000Y-103800000D03*
D14*
X81550000Y-103800000D03*
X81550000Y-101500000D03*
X81550000Y-106100000D03*
D15*
X87750000Y-96700000D03*
X89650000Y-96700000D03*
X87750000Y-98800000D03*
X89650000Y-98800000D03*
D16*
X100000000Y-119100000D03*
D10*
G36*
X108507950Y-114683751D02*
X110216249Y-118807950D01*
X106092050Y-120516249D01*
X104383751Y-116392050D01*
X108507950Y-114683751D01*
X108507950Y-114683751D01*
G37*
G36*
X95616249Y-116392050D02*
X93907950Y-120516249D01*
X89783751Y-118807950D01*
X91492050Y-114683751D01*
X95616249Y-116392050D01*
X95616249Y-116392050D01*
G37*
G36*
X113500000Y-110343475D02*
X116656525Y-113500000D01*
X113500000Y-116656525D01*
X110343475Y-113500000D01*
X113500000Y-110343475D01*
X113500000Y-110343475D01*
G37*
G36*
X89656525Y-113500000D02*
X86500000Y-116656525D01*
X83343475Y-113500000D01*
X86500000Y-110343475D01*
X89656525Y-113500000D01*
X89656525Y-113500000D01*
G37*
M02*
