%TF.GenerationSoftware,KiCad,Pcbnew,4.0.7+dfsg1-1*%
%TF.CreationDate,2018-03-01T17:25:55+01:00*%
%TF.ProjectId,ARC-Reactor,4152432D52656163746F722E6B696361,rev?*%
%TF.FileFunction,Legend,Bot*%
%FSLAX46Y46*%
G04 Gerber Fmt 4.6, Leading zero omitted, Abs format (unit mm)*
G04 Created by KiCad (PCBNEW 4.0.7+dfsg1-1) date Thu Mar  1 17:25:55 2018*
%MOMM*%
%LPD*%
G01*
G04 APERTURE LIST*
%ADD10C,0.150000*%
%ADD11C,0.066040*%
%ADD12C,0.127000*%
%ADD13C,0.120000*%
%ADD14C,0.101600*%
G04 APERTURE END LIST*
D10*
X123500000Y-100000000D02*
G75*
G03X123500000Y-100000000I-23500000J0D01*
G01*
D11*
X92300720Y-110099480D02*
X94701020Y-110099480D01*
X94701020Y-110099480D02*
X94701020Y-112499780D01*
X92300720Y-112499780D02*
X94701020Y-112499780D01*
X92300720Y-110099480D02*
X92300720Y-112499780D01*
X100499840Y-109898820D02*
X102897600Y-109898820D01*
X102897600Y-109898820D02*
X102897600Y-112697900D01*
X100499840Y-112697900D02*
X102897600Y-112697900D01*
X100499840Y-109898820D02*
X100499840Y-112697900D01*
D12*
X91701280Y-95502100D02*
X103898360Y-95502100D01*
X91701280Y-112898560D02*
X103898360Y-112898560D01*
X103898360Y-112898560D02*
X103898360Y-109698160D01*
X103898360Y-109698160D02*
X103898360Y-95502100D01*
X91701280Y-112898560D02*
X91701280Y-109698160D01*
X91701280Y-109698160D02*
X91701280Y-95502100D01*
X99097760Y-107099740D02*
X94302240Y-107099740D01*
X94302240Y-107099740D02*
X94302240Y-102101020D01*
X94302240Y-102101020D02*
X99097760Y-102101020D01*
X99097760Y-102101020D02*
X99097760Y-107099740D01*
X102498820Y-101900360D02*
X100098520Y-101900360D01*
X100098520Y-101900360D02*
X100098520Y-99301940D01*
X100098520Y-99301940D02*
X102498820Y-99301940D01*
X102498820Y-99301940D02*
X102498820Y-101900360D01*
X99097760Y-100701480D02*
X94302240Y-100701480D01*
X94302240Y-100701480D02*
X94302240Y-95700220D01*
X94302240Y-95700220D02*
X99097760Y-95700220D01*
X99097760Y-95700220D02*
X99097760Y-100701480D01*
D13*
X84900000Y-99950000D02*
X83900000Y-99950000D01*
X83900000Y-98250000D02*
X84900000Y-98250000D01*
X86300000Y-108250000D02*
X87300000Y-108250000D01*
X87300000Y-109950000D02*
X86300000Y-109950000D01*
X86610000Y-100390000D02*
X86610000Y-101650000D01*
X86610000Y-107210000D02*
X86610000Y-105950000D01*
X82850000Y-100390000D02*
X86610000Y-100390000D01*
X80600000Y-107210000D02*
X86610000Y-107210000D01*
X89300000Y-95820000D02*
X88100000Y-95820000D01*
X88100000Y-97580000D02*
X89300000Y-97580000D01*
X89300000Y-97920000D02*
X88100000Y-97920000D01*
X88100000Y-99680000D02*
X89300000Y-99680000D01*
D10*
X97500640Y-121599360D02*
X102499360Y-121599360D01*
X102499360Y-121599360D02*
X102499360Y-116600640D01*
X102499360Y-116600640D02*
X97500640Y-116600640D01*
X97500640Y-116600640D02*
X97500640Y-121599360D01*
X108652644Y-114334429D02*
X104034429Y-116247356D01*
X104034429Y-116247356D02*
X105947356Y-120865571D01*
X105947356Y-120865571D02*
X110565571Y-118952644D01*
X110565571Y-118952644D02*
X108652644Y-114334429D01*
X95965571Y-116247356D02*
X91347356Y-114334429D01*
X91347356Y-114334429D02*
X89434429Y-118952644D01*
X89434429Y-118952644D02*
X94052644Y-120865571D01*
X94052644Y-120865571D02*
X95965571Y-116247356D01*
X113500000Y-109965371D02*
X109965371Y-113500000D01*
X109965371Y-113500000D02*
X113500000Y-117034629D01*
X113500000Y-117034629D02*
X117034629Y-113500000D01*
X117034629Y-113500000D02*
X113500000Y-109965371D01*
X90034629Y-113500000D02*
X86500000Y-109965371D01*
X86500000Y-109965371D02*
X82965371Y-113500000D01*
X82965371Y-113500000D02*
X86500000Y-117034629D01*
X86500000Y-117034629D02*
X90034629Y-113500000D01*
D14*
X95843899Y-112769504D02*
X95843899Y-113797599D01*
X95783423Y-113918551D01*
X95722947Y-113979028D01*
X95601994Y-114039504D01*
X95360090Y-114039504D01*
X95239137Y-113979028D01*
X95178661Y-113918551D01*
X95118185Y-113797599D01*
X95118185Y-112769504D01*
X93848185Y-114039504D02*
X94573899Y-114039504D01*
X94211042Y-114039504D02*
X94211042Y-112769504D01*
X94331994Y-112950932D01*
X94452947Y-113071885D01*
X94573899Y-113132361D01*
X99018899Y-94644306D02*
X98595566Y-94644306D01*
X98414137Y-95309544D02*
X99018899Y-95309544D01*
X99018899Y-94039544D01*
X98414137Y-94039544D01*
X97930327Y-95249068D02*
X97748899Y-95309544D01*
X97446518Y-95309544D01*
X97325565Y-95249068D01*
X97265089Y-95188591D01*
X97204613Y-95067639D01*
X97204613Y-94946687D01*
X97265089Y-94825734D01*
X97325565Y-94765258D01*
X97446518Y-94704782D01*
X97688422Y-94644306D01*
X97809375Y-94583830D01*
X97869851Y-94523353D01*
X97930327Y-94402401D01*
X97930327Y-94281449D01*
X97869851Y-94160496D01*
X97809375Y-94100020D01*
X97688422Y-94039544D01*
X97386042Y-94039544D01*
X97204613Y-94100020D01*
X96660327Y-95309544D02*
X96660327Y-94039544D01*
X96176518Y-94039544D01*
X96055565Y-94100020D01*
X95995089Y-94160496D01*
X95934613Y-94281449D01*
X95934613Y-94462877D01*
X95995089Y-94583830D01*
X96055565Y-94644306D01*
X96176518Y-94704782D01*
X96660327Y-94704782D01*
X95390327Y-94825734D02*
X94422708Y-94825734D01*
X93576041Y-94039544D02*
X93455089Y-94039544D01*
X93334137Y-94100020D01*
X93273660Y-94160496D01*
X93213184Y-94281449D01*
X93152708Y-94523353D01*
X93152708Y-94825734D01*
X93213184Y-95067639D01*
X93273660Y-95188591D01*
X93334137Y-95249068D01*
X93455089Y-95309544D01*
X93576041Y-95309544D01*
X93696994Y-95249068D01*
X93757470Y-95188591D01*
X93817946Y-95067639D01*
X93878422Y-94825734D01*
X93878422Y-94523353D01*
X93817946Y-94281449D01*
X93757470Y-94160496D01*
X93696994Y-94100020D01*
X93576041Y-94039544D01*
X92729374Y-94039544D02*
X91943184Y-94039544D01*
X92366517Y-94523353D01*
X92185089Y-94523353D01*
X92064136Y-94583830D01*
X92003660Y-94644306D01*
X91943184Y-94765258D01*
X91943184Y-95067639D01*
X92003660Y-95188591D01*
X92064136Y-95249068D01*
X92185089Y-95309544D01*
X92547946Y-95309544D01*
X92668898Y-95249068D01*
X92729374Y-95188591D01*
D10*
X84566666Y-100957143D02*
X84614285Y-101004762D01*
X84757142Y-101052381D01*
X84852380Y-101052381D01*
X84995238Y-101004762D01*
X85090476Y-100909524D01*
X85138095Y-100814286D01*
X85185714Y-100623810D01*
X85185714Y-100480952D01*
X85138095Y-100290476D01*
X85090476Y-100195238D01*
X84995238Y-100100000D01*
X84852380Y-100052381D01*
X84757142Y-100052381D01*
X84614285Y-100100000D01*
X84566666Y-100147619D01*
X83614285Y-101052381D02*
X84185714Y-101052381D01*
X83900000Y-101052381D02*
X83900000Y-100052381D01*
X83995238Y-100195238D01*
X84090476Y-100290476D01*
X84185714Y-100338095D01*
X86966666Y-107957143D02*
X87014285Y-108004762D01*
X87157142Y-108052381D01*
X87252380Y-108052381D01*
X87395238Y-108004762D01*
X87490476Y-107909524D01*
X87538095Y-107814286D01*
X87585714Y-107623810D01*
X87585714Y-107480952D01*
X87538095Y-107290476D01*
X87490476Y-107195238D01*
X87395238Y-107100000D01*
X87252380Y-107052381D01*
X87157142Y-107052381D01*
X87014285Y-107100000D01*
X86966666Y-107147619D01*
X86585714Y-107147619D02*
X86538095Y-107100000D01*
X86442857Y-107052381D01*
X86204761Y-107052381D01*
X86109523Y-107100000D01*
X86061904Y-107147619D01*
X86014285Y-107242857D01*
X86014285Y-107338095D01*
X86061904Y-107480952D01*
X86633333Y-108052381D01*
X86014285Y-108052381D01*
X85461905Y-107752381D02*
X85461905Y-108561905D01*
X85414286Y-108657143D01*
X85366667Y-108704762D01*
X85271429Y-108752381D01*
X85080952Y-108752381D01*
X84985714Y-108704762D01*
X84938095Y-108657143D01*
X84890476Y-108561905D01*
X84890476Y-107752381D01*
X84461905Y-107847619D02*
X84414286Y-107800000D01*
X84319048Y-107752381D01*
X84080952Y-107752381D01*
X83985714Y-107800000D01*
X83938095Y-107847619D01*
X83890476Y-107942857D01*
X83890476Y-108038095D01*
X83938095Y-108180952D01*
X84509524Y-108752381D01*
X83890476Y-108752381D01*
X88866666Y-98802381D02*
X89200000Y-98326190D01*
X89438095Y-98802381D02*
X89438095Y-97802381D01*
X89057142Y-97802381D01*
X88961904Y-97850000D01*
X88914285Y-97897619D01*
X88866666Y-97992857D01*
X88866666Y-98135714D01*
X88914285Y-98230952D01*
X88961904Y-98278571D01*
X89057142Y-98326190D01*
X89438095Y-98326190D01*
X87914285Y-98802381D02*
X88485714Y-98802381D01*
X88200000Y-98802381D02*
X88200000Y-97802381D01*
X88295238Y-97945238D01*
X88390476Y-98040476D01*
X88485714Y-98088095D01*
X88866666Y-100902381D02*
X89200000Y-100426190D01*
X89438095Y-100902381D02*
X89438095Y-99902381D01*
X89057142Y-99902381D01*
X88961904Y-99950000D01*
X88914285Y-99997619D01*
X88866666Y-100092857D01*
X88866666Y-100235714D01*
X88914285Y-100330952D01*
X88961904Y-100378571D01*
X89057142Y-100426190D01*
X89438095Y-100426190D01*
X88485714Y-99997619D02*
X88438095Y-99950000D01*
X88342857Y-99902381D01*
X88104761Y-99902381D01*
X88009523Y-99950000D01*
X87961904Y-99997619D01*
X87914285Y-100092857D01*
X87914285Y-100188095D01*
X87961904Y-100330952D01*
X88533333Y-100902381D01*
X87914285Y-100902381D01*
X100333333Y-122052501D02*
X100333333Y-122766787D01*
X100380953Y-122909644D01*
X100476191Y-123004882D01*
X100619048Y-123052501D01*
X100714286Y-123052501D01*
X99333333Y-123052501D02*
X99904762Y-123052501D01*
X99619048Y-123052501D02*
X99619048Y-122052501D01*
X99714286Y-122195358D01*
X99809524Y-122290596D01*
X99904762Y-122338215D01*
X106058957Y-113732816D02*
X106332302Y-114392730D01*
X106430966Y-114506489D01*
X106555401Y-114558032D01*
X106705606Y-114547357D01*
X106793595Y-114510911D01*
X105699455Y-113984811D02*
X105637238Y-113959040D01*
X105531026Y-113951492D01*
X105311054Y-114042607D01*
X105241289Y-114123048D01*
X105215518Y-114185265D01*
X105207969Y-114291476D01*
X105244415Y-114379465D01*
X105343079Y-114493224D01*
X106089686Y-114802480D01*
X105517761Y-115039379D01*
X94556962Y-113987938D02*
X94283617Y-114647852D01*
X94272943Y-114798058D01*
X94324485Y-114922493D01*
X94438245Y-115021156D01*
X94526234Y-115057602D01*
X94205008Y-113842154D02*
X93633083Y-113605255D01*
X93795259Y-114084770D01*
X93663276Y-114030100D01*
X93557064Y-114037649D01*
X93494847Y-114063420D01*
X93414406Y-114133186D01*
X93323291Y-114353157D01*
X93330840Y-114459369D01*
X93356611Y-114521586D01*
X93426376Y-114602026D01*
X93690342Y-114711365D01*
X93796554Y-114703816D01*
X93858771Y-114678045D01*
X110873518Y-110402114D02*
X111378594Y-110907190D01*
X111513282Y-110974533D01*
X111647969Y-110974533D01*
X111782656Y-110907190D01*
X111849999Y-110839846D01*
X110469457Y-111277579D02*
X110940861Y-111748984D01*
X110368442Y-110839846D02*
X111041877Y-111176564D01*
X110604144Y-111614297D01*
X89597886Y-110873518D02*
X89092810Y-111378594D01*
X89025467Y-111513282D01*
X89025467Y-111647969D01*
X89092810Y-111782656D01*
X89160154Y-111849999D01*
X88924451Y-110200083D02*
X89261169Y-110536801D01*
X88958123Y-110907190D01*
X88958123Y-110839846D01*
X88924452Y-110738831D01*
X88756092Y-110570472D01*
X88655077Y-110536800D01*
X88587734Y-110536800D01*
X88486718Y-110570472D01*
X88318359Y-110738831D01*
X88284688Y-110839846D01*
X88284688Y-110907190D01*
X88318359Y-111008205D01*
X88486719Y-111176564D01*
X88587734Y-111210236D01*
X88655077Y-111210236D01*
M02*
