M48
;DRILL file {KiCad 4.0.7+dfsg1-1} date Thu Mar  1 17:26:25 2018
;FORMAT={-:-/ absolute / inch / decimal}
FMAT,2
INCH,TZ
T1C0.016
T2C0.024
%
G90
G05
M72
T1
X3.3504Y-4.0039
X3.3661Y-3.7756
X3.4213Y-4.2283
X3.4724Y-4.4055
X3.4764Y-3.5709
X3.5669Y-4.3976
X3.6535Y-3.4173
X3.7047Y-4.
X3.7244Y-3.815
X3.748Y-4.1299
X3.7756Y-4.5039
X3.7992Y-3.7638
X3.8189Y-4.1535
X3.8701Y-3.3504
X3.8701Y-3.7008
X3.8701Y-4.1024
X4.Y-4.1693
X4.Y-4.5197
X4.0551Y-3.7205
X4.0945Y-3.3661
X4.1496Y-4.0591
X4.1693Y-3.8701
X4.2205Y-4.4567
X4.3031Y-3.4764
X4.3976Y-4.3031
X4.4567Y-3.6535
X4.5079Y-4.0945
X4.5236Y-3.874
T2
X3.2106Y-3.9272
X3.6496Y-4.6299
X4.4685Y-4.4646
T0
M30
